<svg xmlns="http://www.w3.org/2000/svg" viewBox="0 0 32 32" fill="none">
  <defs>
    <linearGradient id="favGradient" x1="0%" y1="0%" x2="100%" y2="100%">
      <stop offset="0%" style="stop-color:#f97316"/>
      <stop offset="100%" style="stop-color:#ea580c"/>
    </linearGradient>
  </defs>
  <rect width="32" height="32" rx="7" fill="url(#favGradient)"/>
  <!-- Simplified Chef Hat -->
  <path d="M16 6c-1.5 0-2.75 1-3 2.25-.25-.75-1-1.25-2-1.25-1.5 0-2.5 1.25-2.5 2.75 0 .75.25 1.25.75 1.75v7.5h13.5v-7.5c.5-.5.75-1 .75-1.75 0-1.5-1-2.75-2.5-2.75-1 0-1.75.5-2 1.25-.25-1.25-1.5-2.25-3-2.25z" fill="white"/>
  <!-- Bowl -->
  <path d="M8 22c0 2.5 3.5 4.5 8 4.5s8-2 8-4.5-3.5-1-8-1-8-1.5-8 1z" fill="white" opacity="0.9"/>
</svg>
