<svg xmlns="http://www.w3.org/2000/svg" viewBox="0 0 64 64" fill="none">
  <defs>
    <linearGradient id="logoGradient" x1="0%" y1="0%" x2="100%" y2="100%">
      <stop offset="0%" style="stop-color:#f97316"/>
      <stop offset="100%" style="stop-color:#ea580c"/>
    </linearGradient>
  </defs>
  <!-- Background -->
  <rect width="64" height="64" rx="14" fill="url(#logoGradient)"/>
  <!-- Chef Hat -->
  <path d="M32 12c-3 0-5.5 2-6 4.5-.5-1.5-2-2.5-4-2.5-3 0-5 2.5-5 5.5 0 1.5.5 2.5 1.5 3.5v15h27v-15c1-1 1.5-2 1.5-3.5 0-3-2-5.5-5-5.5-2 0-3.5 1-4 2.5-.5-2.5-3-4.5-6-4.5z" fill="white" opacity="0.95"/>
  <!-- Plate/Bowl -->
  <ellipse cx="32" cy="46" rx="16" ry="4" fill="white" opacity="0.3"/>
  <path d="M16 44c0 5 7 9 16 9s16-4 16-9-7-2-16-2-16-3-16 2z" fill="white" opacity="0.9"/>
  <!-- Steam lines -->
  <path d="M26 34c0-2 1-3 1-5" stroke="white" stroke-width="2" stroke-linecap="round" opacity="0.6"/>
  <path d="M32 32c0-2 1-4 1-6" stroke="white" stroke-width="2" stroke-linecap="round" opacity="0.6"/>
  <path d="M38 34c0-2 1-3 1-5" stroke="white" stroke-width="2" stroke-linecap="round" opacity="0.6"/>
</svg>
