<svg xmlns="http://www.w3.org/2000/svg" viewBox="0 0 64 64">
  <rect width="64" height="64" rx="14" fill="#FF385C"/>
  <!-- Steaming bowl mark -->
  <path d="M14 34h36a2 2 0 0 1 2 2c0 7.5-6 13.5-14 15.4V53a2 2 0 0 1-2 2H28a2 2 0 0 1-2-2v-1.6C18 49.5 12 43.5 12 36a2 2 0 0 1 2-2Z" fill="#fff"/>
  <path d="M26 12c0 3-3 4.5-3 8 0 2.4 1.3 4 2.4 5.2.5.6 1.4.2 1.4-.6 0-2.6 2.7-3.9 2.7-7.3 0-2.4-1.2-4-2.3-5.3-.4-.6-1.2-.7-1.2 0Z" fill="#fff" opacity=".85"/>
  <path d="M38 12c0 3-3 4.5-3 8 0 2.4 1.3 4 2.4 5.2.5.6 1.4.2 1.4-.6 0-2.6 2.7-3.9 2.7-7.3 0-2.4-1.2-4-2.3-5.3-.4-.6-1.2-.7-1.2 0Z" fill="#fff" opacity=".85"/>
</svg>
